<?xml version="1.0" encoding="UTF-8"?>
<svg version="1.1" xmlns="http://www.w3.org/2000/svg" width="1571" height="590">
<path d="M0 0 C2.46600091 0.94331798 4.87076561 1.97381824 7.2795105 3.05493164 C8.15461777 3.4322644 9.02972504 3.80959717 9.93135071 4.19836426 C12.69883311 5.39579258 15.45581739 6.61548644 18.21310425 7.83618164 C20.09852133 8.65668872 21.98458381 9.47571446 23.87130737 10.29321289 C28.47204639 12.29048415 33.06351428 14.30777077 37.65060425 16.33618164 C30.56175373 38.32189194 11.80359932 56.72206752 -8.3196106 67.37963867 C-23.10020256 74.78634538 -38.89388024 78.5236914 -55.42752075 78.44970703 C-56.73137474 78.44992607 -56.73137474 78.44992607 -58.06156921 78.45014954 C-60.90753763 78.44945815 -63.75343891 78.44170233 -66.59939575 78.43383789 C-68.58336349 78.43197096 -70.56733169 78.43054835 -72.55130005 78.42955017 C-77.75279023 78.42574668 -82.95425213 78.41593506 -88.1557312 78.40484619 C-94.40753088 78.39277869 -100.65934006 78.3882195 -106.91114807 78.38239288 C-116.39058358 78.37272203 -125.86995715 78.35355032 -135.34939575 78.33618164 C-135.34939575 100.44618164 -135.34939575 122.55618164 -135.34939575 145.33618164 C-85.84939575 145.33618164 -36.34939575 145.33618164 14.65060425 145.33618164 C14.65060425 189.33618164 14.65060425 189.33618164 10.65060425 195.33618164 C6.97864935 198.19678324 4.30024111 198.70924389 -0.30357361 198.69694519 C-1.49684265 198.70106918 -2.69011169 198.70519318 -3.91954041 198.70944214 C-5.22001816 198.69865631 -6.52049591 198.68787048 -7.86038208 198.67675781 C-9.2502643 198.67591116 -10.64014786 198.67638743 -12.0300293 198.67808533 C-15.79626002 198.67894522 -19.56220345 198.66132067 -23.32836747 198.64036345 C-27.26681447 198.62159552 -31.20526823 198.61984612 -35.14375305 198.61628723 C-42.59871109 198.6069671 -50.05353698 198.58235378 -57.50843686 198.55223876 C-65.99688534 198.51869374 -74.48534017 198.50220849 -82.97383845 198.48715246 C-100.43244767 198.45580414 -117.89087575 198.40079251 -135.34939575 198.33618164 C-135.34939575 218.46618164 -135.34939575 238.59618164 -135.34939575 259.33618164 C-70.33939575 259.33618164 -5.32939575 259.33618164 61.65060425 259.33618164 C61.65060425 305.15336566 61.65060425 305.15336566 55.87911606 311.18863392 C52.64268195 312.85520017 49.54909092 312.7398649 45.99441528 312.69694519 C44.83160164 312.7007901 44.83160164 312.7007901 43.64529681 312.70471269 C41.04561793 312.70965729 38.44651876 312.69314676 35.84689331 312.67675781 C33.98425816 312.67591169 32.121622 312.6763864 30.25898743 312.67808533 C25.1993809 312.67894727 20.13998706 312.66128931 15.08043003 312.64036345 C9.79399756 312.62162978 4.5075604 312.61984883 -0.77890015 312.61628723 C-10.790908 312.60695704 -20.80281776 312.58233004 -30.81478238 312.55223876 C-42.21246794 312.51872509 -53.61015814 312.50221637 -65.00788069 312.48715246 C-88.45510679 312.45578136 -111.90224578 312.4030019 -135.34939575 312.33618164 C-135.34051331 312.98969604 -135.33163086 313.64321045 -135.32247925 314.31652832 C-135.23311544 321.19619892 -135.17329702 328.07570136 -135.12966919 334.95581055 C-135.10970985 337.51414705 -135.08253264 340.07243886 -135.04763794 342.63061523 C-134.72136307 367.18759765 -136.78343126 386.29036553 -153.6267395 405.54711914 C-168.38969569 420.67014743 -186.61444474 426.26308494 -207.21632385 426.69534302 C-212.17040613 426.74884269 -217.12289582 426.75214759 -222.07717896 426.72729492 C-225.93454646 426.71108646 -229.79088645 426.72727483 -233.64822388 426.74633789 C-236.11241889 426.7443576 -238.57661326 426.74051836 -241.040802 426.73461914 C-242.18771011 426.74069183 -243.33461823 426.74676453 -244.51628113 426.75302124 C-254.8905841 426.66153099 -254.8905841 426.66153099 -259.34939575 423.33618164 C-263.22686443 418.73158003 -264.63835456 413.84053278 -266.14627075 408.14086914 C-266.38476746 407.27100372 -266.62326416 406.40113831 -266.86898804 405.50491333 C-267.3681272 403.67582427 -267.86199822 401.84529025 -268.3508606 400.01342773 C-269.09972485 397.20994961 -269.86573435 394.4115899 -270.634552 391.61352539 C-271.1186354 389.83124746 -271.60174236 388.04870396 -272.08377075 386.26586914 C-272.31183411 385.43038544 -272.53989746 384.59490173 -272.77487183 383.73410034 C-272.98218933 382.95293854 -273.18950684 382.17177673 -273.40310669 381.36694336 C-273.67813019 380.34151932 -273.67813019 380.34151932 -273.95870972 379.29537964 C-274.34939575 377.33618164 -274.34939575 377.33618164 -274.34939575 373.33618164 C-273.00088783 373.32738228 -273.00088783 373.32738228 -271.62513733 373.31840515 C-263.13592878 373.26040333 -254.64698124 373.18828366 -246.1580267 373.10046673 C-241.79418232 373.05581707 -237.43043014 373.01654918 -233.06643677 372.98974609 C-228.85170658 372.96365898 -224.6373322 372.92321874 -220.42282295 372.87299538 C-218.81819664 372.85636312 -217.21350883 372.84482622 -215.60880852 372.83856773 C-213.35391169 372.82888662 -211.09991767 372.80078158 -208.84524536 372.76855469 C-206.92330605 372.7519001 -206.92330605 372.7519001 -204.96253967 372.73490906 C-199.69542431 372.15365812 -195.75421264 370.77796739 -191.97439575 366.89868164 C-182.21275252 351.50532115 -188.72905494 330.55982246 -188.34939575 312.33618164 C-255.66939575 312.33618164 -322.98939575 312.33618164 -392.34939575 312.33618164 C-392.34939575 268.33618164 -392.34939575 268.33618164 -388.34939575 262.33618164 C-383.33420904 259.46828879 -378.84848208 258.9076224 -373.18058777 258.97541809 C-372.38648119 258.97285482 -371.59237461 258.97029154 -370.77420419 258.96765059 C-368.12856615 258.96273177 -365.4835061 258.97917387 -362.83792114 258.99560547 C-360.93543511 258.99645215 -359.03294811 258.99597579 -357.13046265 258.99427795 C-351.97599664 258.99341819 -346.82174062 259.01104097 -341.66732335 259.03199983 C-336.27680737 259.05076974 -330.88628642 259.05251732 -325.4957428 259.05607605 C-315.29258938 259.06539557 -305.08953254 259.09000817 -294.88642162 259.12012452 C-283.26859793 259.15367135 -271.65076959 259.17015526 -260.03290951 259.18521082 C-236.13833907 259.21655777 -212.243901 259.27156876 -188.34939575 259.33618164 C-188.34939575 239.20618164 -188.34939575 219.07618164 -188.34939575 198.33618164 C-240.81939575 198.33618164 -293.28939575 198.33618164 -347.34939575 198.33618164 C-347.34939575 155.33618164 -347.34939575 155.33618164 -343.34939575 148.33618164 C-336.94784879 144.03389343 -329.42178034 144.93497335 -321.96878052 144.99560547 C-320.50963865 144.99645256 -319.0504955 144.995975 -317.59135437 144.99427795 C-313.64550065 144.99341977 -309.6999224 145.0110166 -305.75413251 145.03199983 C-301.62484474 145.05079632 -297.49555015 145.05251941 -293.3662262 145.05607605 C-285.55363625 145.0653878 -277.74117275 145.08998976 -269.9286384 145.12012452 C-259.36672221 145.15997703 -248.80477126 145.17613044 -238.24279881 145.19363117 C-221.61156981 145.22181152 -204.98060759 145.28158678 -188.34939575 145.33618164 C-188.34939575 123.22618164 -188.34939575 101.11618164 -188.34939575 78.33618164 C-193.3163147 78.35712891 -198.28323364 78.37807617 -203.40066528 78.3996582 C-219.79324502 78.4658742 -236.18582995 78.5102992 -252.57850838 78.54343033 C-262.51945944 78.56405592 -272.46028382 78.5921765 -282.40115356 78.63793945 C-291.06557896 78.67780726 -299.72991261 78.70361448 -308.39442718 78.71253562 C-312.98229637 78.71775046 -317.56990307 78.73000717 -322.15768814 78.75910187 C-326.47672695 78.78627009 -330.79539535 78.79462381 -335.11451149 78.78861237 C-336.69876812 78.78971198 -338.28303724 78.79765766 -339.86721992 78.81300354 C-342.03320967 78.83295456 -344.19780751 78.82810364 -346.36383057 78.81719971 C-348.18068454 78.82273046 -348.18068454 78.82273046 -350.03424263 78.82837296 C-354.20761444 78.20876436 -356.2067937 77.15781127 -359.34939575 74.33618164 C-362.70365935 68.78641814 -362.75654651 62.89511846 -362.6423645 56.58618164 C-362.63811966 55.68746338 -362.63387482 54.78874512 -362.62950134 53.86279297 C-362.61284159 51.02027152 -362.57521407 48.17848519 -362.53689575 45.33618164 C-362.52183246 43.39738987 -362.50814695 41.45858687 -362.49588013 39.51977539 C-362.46297985 34.79163185 -362.4112869 30.06403095 -362.34939575 25.33618164 C-361.69203361 25.33558455 -361.03467147 25.33498746 -360.35738927 25.33437228 C-321.368274 25.29845268 -282.37923808 25.24177432 -243.39019443 25.15826069 C-238.70528985 25.14824363 -234.02038491 25.13839943 -229.33547974 25.12866211 C-228.40282735 25.12672074 -227.47017496 25.12477936 -226.50926038 25.12277916 C-211.42194026 25.0917859 -196.33463534 25.07478598 -181.2472894 25.06298742 C-165.75810338 25.050562 -150.26899693 25.02302921 -134.77986115 24.98156857 C-125.22768685 24.95647298 -115.67564457 24.94306148 -106.12343683 24.94475207 C-99.56681873 24.9447819 -93.01033479 24.93009374 -86.45376901 24.90401736 C-82.67495235 24.88941733 -78.89641079 24.88112871 -75.11757088 24.89037895 C-71.00991935 24.90026336 -66.90298876 24.87906264 -62.7953949 24.85516357 C-61.61539502 24.86292399 -60.43539514 24.87068441 -59.21963769 24.87867999 C-46.1582331 24.74472245 -33.28054495 21.09167128 -23.74002075 11.76245117 C-21.0037493 8.92309005 -18.37537168 6.00214135 -15.7829895 3.03149414 C-11.41407965 -1.80726637 -6.11643414 -1.72818959 0 0 Z " fill="#555555" transform="translate(1509.3493957519531,101.663818359375)"/>
<path d="M0 0 C0.68904468 -0.00297112 1.37808936 -0.00594224 2.08801419 -0.0090034 C4.37282151 -0.01760221 6.65757591 -0.01919111 8.94239807 -0.02069092 C10.59085194 -0.02532551 12.23930476 -0.03035102 13.88775635 -0.03573608 C18.35109125 -0.04880405 22.81441115 -0.05529456 27.27776217 -0.05974674 C30.07401207 -0.06268775 32.87025795 -0.06679455 35.66650581 -0.07125092 C44.43747958 -0.08491376 53.20844409 -0.09458522 61.97942775 -0.09845281 C72.06227699 -0.1029247 82.14499006 -0.12043725 92.22779793 -0.1494534 C100.04812052 -0.17116743 107.8684051 -0.18116231 115.68875748 -0.18249393 C120.34666035 -0.18353542 125.00443504 -0.1893014 129.66230583 -0.20731354 C134.05286199 -0.22396233 138.44319592 -0.22586953 142.83377266 -0.21717453 C144.43113939 -0.21641293 146.02851891 -0.2206285 147.62585449 -0.23063278 C179.76054999 -0.41983349 206.16763111 10.37351079 229.21803284 32.56622314 C247.82529238 51.95557416 256.82547759 78.30781926 256.8596344 104.85089111 C256.8645993 105.78874954 256.86956421 106.72660797 256.87467957 107.69288635 C256.88920865 110.77697504 256.89608991 113.86101219 256.90162659 116.94512939 C256.90445396 118.00754978 256.90728134 119.06997017 256.9101944 120.16458511 C256.92515431 125.79390966 256.93440229 131.42320882 256.93873596 137.05255127 C256.94419664 142.81933297 256.96818304 148.58587572 256.99670792 154.35258293 C257.01549384 158.82777545 257.02054844 163.30291243 257.02207184 167.77814102 C257.02506619 169.90124941 257.03298331 172.0243576 257.04625702 174.14742661 C257.21913012 203.93888983 251.42423685 231.57241905 230.69850159 254.14044189 C230.2605426 254.62609619 229.82258362 255.11175049 229.37135315 255.61212158 C213.28165281 273.29148885 191.46537909 284.83858996 167.69850159 288.14044189 C165.22187107 288.2354414 162.7430411 288.27945598 160.26460266 288.28761292 C159.53713687 288.2912896 158.80967108 288.29496629 158.06016088 288.29875439 C155.63328538 288.30972798 153.20645279 288.31362437 150.77955627 288.31744385 C149.03449876 288.32371362 147.28944257 288.33036088 145.54438782 288.33735657 C139.81972677 288.35835049 134.09506563 288.36875941 128.37037659 288.37872314 C126.39270769 288.38277342 124.41503892 288.38689043 122.4373703 288.39107323 C113.13725948 288.41012018 103.83715654 288.42434831 94.53702998 288.4326852 C83.84004057 288.44243488 73.14325934 288.46869703 62.44634318 288.50918609 C54.15556193 288.5394781 45.86483987 288.55416668 37.57400441 288.55746621 C32.63374786 288.55980315 27.69371379 288.56858419 22.75351715 288.59392738 C18.0945509 288.61744111 13.43594991 288.62134916 8.77693939 288.611166 C7.08162206 288.61067602 5.3862853 288.61683434 3.69102478 288.63072205 C-14.30500337 288.76970654 -30.21345779 285.25479244 -46.30149841 277.14044189 C-47.34821716 276.61708252 -48.39493591 276.09372314 -49.47337341 275.55450439 C-71.75814468 263.46884802 -87.89144611 242.82337699 -96.30149841 219.14044189 C-108.65799542 224.82332498 -120.81777487 230.88004505 -132.95774841 237.00762939 C-134.57260209 237.82156131 -136.18751146 238.63538273 -137.80247498 239.44909668 C-144.50441334 242.82686871 -151.20612256 246.20500796 -157.89915466 249.60040283 C-162.04045128 251.70089307 -166.18666966 253.79137293 -170.33621216 255.87552261 C-171.8975748 256.66202309 -173.45713047 257.45212272 -175.01470947 258.24608994 C-190.72292866 266.2497241 -205.59925734 271.52823582 -223.23899841 266.45294189 C-236.95573119 261.59880835 -247.81888579 253.4526683 -254.30149841 240.14044189 C-258.35439454 230.6765864 -258.87640329 221.77086728 -258.81907654 211.63848877 C-258.82450861 210.01088335 -258.83163731 208.38328287 -258.84031677 206.75569153 C-258.8584243 202.36924807 -258.85153508 197.9831844 -258.83880043 193.596735 C-258.8286071 188.98592806 -258.83808357 184.37515161 -258.84434509 179.76434326 C-258.85160318 172.02425353 -258.84208227 164.28431693 -258.82298279 156.54425049 C-258.80121759 147.62138517 -258.80827026 138.69888557 -258.83028841 129.77602911 C-258.84849502 122.08730889 -258.85097511 114.39869816 -258.84053373 106.70996332 C-258.83432762 102.12996084 -258.83338315 97.55012973 -258.84667969 92.97013855 C-258.85831454 88.66233816 -258.85007462 84.35500498 -258.82710266 80.04725456 C-258.82185603 78.47521169 -258.82325914 76.90312884 -258.83215332 75.33110237 C-258.91095535 59.97634137 -255.57725104 47.23372987 -245.04759216 35.66387939 C-234.12860263 25.18305156 -221.72978167 20.68857497 -206.87010193 20.77911377 C-196.91664832 21.02813795 -188.71528189 24.30684341 -179.91551208 28.78961182 C-178.49227026 29.50795643 -177.06895892 30.22616333 -175.64558411 30.94424438 C-174.92345608 31.30971249 -174.20132805 31.67518059 -173.45731735 32.05172348 C-170.08532015 33.75462876 -166.70369126 35.43807907 -163.32225037 37.12213135 C-161.96456209 37.79922586 -160.6069222 38.47641742 -159.24932861 39.15370178 C-158.56292612 39.49609201 -157.87652363 39.83848225 -157.16932106 40.19124794 C-152.66174101 42.44017911 -148.1549572 44.6907056 -143.64815998 46.94120502 C-139.71680276 48.90425393 -135.7850643 50.86653195 -131.8525238 52.82720947 C-128.00121903 54.74742703 -124.1508968 56.66960148 -120.30124474 58.59313011 C-118.84599408 59.31983588 -117.39039317 60.04584074 -115.93442726 60.77111244 C-113.90781534 61.78078326 -111.88247358 62.79295997 -109.85740662 63.8057251 C-108.70875626 64.37893997 -107.5601059 64.95215485 -106.37664795 65.54273987 C-104.38649027 66.57673152 -102.42841187 67.67607396 -100.51675415 68.84886169 C-98.44091539 70.30833563 -98.44091539 70.30833563 -96.30149841 70.14044189 C-96.05657654 69.38762939 -95.81165466 68.63481689 -95.55931091 67.85919189 C-90.24794064 52.76757428 -81.63472464 40.32669545 -70.30149841 29.14044189 C-69.48938904 28.32962158 -68.67727966 27.51880127 -67.84056091 26.68341064 C-49.94298419 9.68360881 -24.58273227 0.05973393 0 0 Z M-34.30149841 70.14044189 C-43.24213326 80.89538967 -47.43477041 92.40012062 -47.47850037 106.22247314 C-47.48507156 107.12891068 -47.49164276 108.03534821 -47.49841309 108.96925354 C-47.5180922 111.96381728 -47.52979938 114.95833087 -47.53977966 117.95294189 C-47.54385519 118.980224 -47.54793072 120.0075061 -47.55212975 121.06591797 C-47.57297186 126.50791216 -47.5872792 131.94988131 -47.59666443 137.39190674 C-47.60769893 142.98558827 -47.64207017 148.57886874 -47.68183613 154.17240906 C-47.70811111 158.49642627 -47.71636611 162.82034969 -47.71994591 167.1444397 C-47.72478714 169.20470881 -47.73632992 171.26497444 -47.7549839 173.32516479 C-47.91147706 191.76081485 -45.65780378 206.26191259 -32.61399841 220.39044189 C-18.47123687 233.71254029 -2.2063996 235.29325073 16.26173401 235.28570557 C17.72948796 235.28870187 19.19724113 235.29210548 20.66499329 235.29588318 C24.63427835 235.30468081 28.60354182 235.30705954 32.57283568 235.30769897 C35.05882663 235.30841204 37.54481217 235.31055125 40.03080177 235.31319618 C48.72122671 235.32243659 57.41163635 235.32653283 66.10206604 235.32574463 C74.17381134 235.32514465 82.24548964 235.33568417 90.31721801 235.35148829 C97.27039437 235.36461203 104.22354897 235.36992648 111.17673761 235.36928922 C115.31916527 235.36903559 119.46153338 235.37181144 123.60394859 235.38246727 C127.50527972 235.39222965 131.40649534 235.39217237 135.30783081 235.38495064 C136.72949202 235.38391473 138.15116073 235.38620764 139.57280922 235.3923111 C159.05061198 235.47043277 173.94437649 232.62661303 188.70240784 219.33575439 C198.7177251 208.89473014 203.01707954 195.13286923 202.97315979 180.95562744 C202.97827072 180.08601379 202.98338165 179.21640015 202.98864746 178.32043457 C203.00243977 175.47260471 203.00159433 172.62501974 202.99928284 169.77716064 C203.00317585 167.77852795 203.00751175 165.77989608 203.01226807 163.78126526 C203.01970833 159.60124017 203.01945523 155.42129957 203.01417542 151.24127197 C203.00838803 145.91220899 203.02530497 140.5834944 203.04852009 135.25448895 C203.06332782 131.12866733 203.06411951 127.00292822 203.06101036 122.87708473 C203.06152018 120.91369755 203.06669341 118.95030532 203.07682228 116.9869442 C203.16003239 98.60150687 201.27824012 83.31704253 188.07350159 69.46075439 C177.97146952 59.59133491 166.29493277 54.03611304 152.02110291 54 C151.36305652 53.99702888 150.70501014 53.99405776 150.02702296 53.9909966 C147.82944942 53.98234861 145.63193061 53.98080466 143.43434143 53.97930908 C141.85541163 53.97467805 140.27648294 53.969653 138.69755554 53.96426392 C134.41212616 53.95116315 130.12671243 53.94469919 125.84126616 53.94025326 C123.16049332 53.93731805 120.47972471 53.93321234 117.79895401 53.92874908 C109.40173754 53.91507866 101.0045308 53.90541046 92.60730398 53.90154719 C82.93243583 53.89707106 73.2577093 53.87954195 63.58288419 53.8505466 C56.09307392 53.82888355 48.60330334 53.81884041 41.11346209 53.81750607 C36.64573442 53.81646112 32.17813993 53.81061971 27.7104454 53.79268646 C23.50297759 53.77612622 19.29574194 53.77408857 15.08825302 53.78282547 C13.55125809 53.78359168 12.01425026 53.77930858 10.47728729 53.76936722 C-6.25266401 53.66757581 -22.52822471 57.32235386 -34.30149841 70.14044189 Z M-203.11399841 92.07794189 C-205.92378685 96.95810076 -205.44974043 102.57901895 -205.44676208 108.04229736 C-205.4501207 108.92911194 -205.45347931 109.81592651 -205.4569397 110.72961426 C-205.46642365 113.65563363 -205.4683915 116.58159562 -205.46946716 119.50762939 C-205.47268143 121.54637678 -205.47604563 123.58512394 -205.47955322 125.62387085 C-205.48553803 129.89583877 -205.48739378 134.16778648 -205.48680115 138.4397583 C-205.48669954 143.90610966 -205.50035302 149.37233108 -205.51757336 154.83865166 C-205.52870698 159.04919019 -205.53071994 163.25969743 -205.53019142 167.47024918 C-205.53136943 169.48521498 -205.53578114 171.50018164 -205.54352379 173.5151329 C-205.55335143 176.33677961 -205.55043468 179.15814587 -205.54441833 181.97979736 C-205.55003784 182.80704315 -205.55565735 183.63428894 -205.56144714 184.48660278 C-205.5325922 189.82833535 -205.41290258 195.58151184 -201.86399841 199.88262939 C-197.18388385 203.27571245 -194.15123915 205.05792051 -188.30149841 204.14044189 C-184.64912093 202.79353642 -181.24030933 201.02894125 -177.78587341 199.24200439 C-176.77542969 198.73301605 -175.76498596 198.22402771 -174.72392273 197.69961548 C-171.49298489 196.06792256 -168.27236573 194.41690879 -165.05149841 192.76544189 C-162.93233925 191.69257706 -160.81255268 190.62095055 -158.69212341 189.55059814 C-148.28037001 184.28181778 -137.92169285 178.91681317 -127.60653687 173.46154785 C-121.81444266 170.40011793 -115.98608304 167.42080144 -110.11399841 164.51544189 C-107.20587341 163.07169189 -104.29774841 161.62794189 -101.30149841 160.14044189 C-101.30149841 150.24044189 -101.30149841 140.34044189 -101.30149841 130.14044189 C-116.2496919 122.19480502 -131.33654579 114.56297243 -146.48899841 107.01544189 C-149.89723964 105.31507885 -153.30519917 103.61415374 -156.71290588 101.91271973 C-158.90346947 100.82036851 -161.0950799 99.73011375 -163.28779602 98.64208984 C-167.95881188 96.32261463 -172.61768527 93.99044146 -177.22972107 91.55548096 C-178.3236895 90.98484421 -178.3236895 90.98484421 -179.4397583 90.40267944 C-180.73685858 89.72346753 -182.02837492 89.03340204 -183.31204224 88.32913208 C-191.19271936 84.22936921 -197.16459013 85.71822959 -203.11399841 92.07794189 Z " fill="#FF4906" transform="translate(258.30149841308594,301.85955810546875)"/>
<path d="M0 0 C0.73460449 0.19835449 1.46920898 0.39670898 2.22607422 0.60107422 C25.97872373 7.11297835 45.34667161 20.22417624 63 37 C63.63421875 37.56976563 64.2684375 38.13953125 64.921875 38.7265625 C72.39971616 45.67027215 79.1443235 55.03318405 84 64 C84 64.66 84 65.32 84 66 C84.43642822 65.64808594 84.87285645 65.29617187 85.32250977 64.93359375 C103.7119148 50.21246063 122.58330655 39.99376735 146 36 C147.03640625 35.81695312 148.0728125 35.63390625 149.140625 35.4453125 C181.8081318 31.67598479 214.22429277 39.52794964 240.19921875 59.92358398 C251.12792546 68.86078474 260.75446927 78.83045208 268 91 C268.56992676 91.95664551 268.56992676 91.95664551 269.15136719 92.93261719 C286.06160833 121.88774567 290.28405223 154.7386295 281.96875 187.19140625 C273.53275062 217.49715609 252.83734147 243.71580395 225.78125 259.5234375 C212.58448302 266.91917909 198.90719368 271.32866078 184 274 C183.26007813 274.13277344 182.52015625 274.26554687 181.7578125 274.40234375 C151.39436652 278.71466195 119.54183668 270.2628302 94.76245117 252.44287109 C85.78978072 245.64695297 76.44749345 237.28256149 70 228 C65.80421531 229.61222276 63.1985304 232.74716517 60.1875 235.9375 C39.51290374 257.07863909 12.08123523 269.54515392 -17 274 C-17.804375 274.13019531 -18.60875 274.26039063 -19.4375 274.39453125 C-54.93683301 279.01684024 -92.20106341 269.15678264 -120.76123047 247.67529297 C-124.66211907 244.61741669 -128.36034125 241.36235141 -132 238 C-132.51014648 237.53368164 -133.02029297 237.06736328 -133.54589844 236.58691406 C-160.89994887 211.31433861 -174.89406733 176.47590813 -176.89794922 139.69726562 C-178.28672693 102.99100693 -164.73129503 67.19176188 -140 40.1875 C-121.82046365 20.89921013 -99.59133912 7.07566976 -74 0 C-73.27635254 -0.21027832 -72.55270508 -0.42055664 -71.80712891 -0.63720703 C-49.43281042 -6.9267161 -22.25958992 -6.4305482 0 0 Z M-96.33203125 77.26953125 C-111.7847474 93.56464419 -119.97612112 114.6016115 -120 137 C-118.70178584 160.65110156 -108.90409454 181.15885278 -91.78125 197.62109375 C-74.25358073 212.61315918 -51.98901027 219.76096301 -29 218 C-5.97452325 214.95978864 14.80329487 204.14194244 29.07080078 185.64404297 C42.44853216 167.4315695 48.42185678 145.37155068 45.28198242 122.88354492 C41.9464418 102.22494145 31.35397825 82.46823714 14.37353516 69.78515625 C-20.76840172 44.93471571 -65.13028253 46.90401031 -96.33203125 77.26953125 Z M117.484375 113.859375 C105.94460677 128.60888008 101.54376774 144.49204501 103 163 C105.2425874 181.02151318 114.82204844 194.48952415 128.375 205.875 C142.21431338 215.97129624 158.535899 219.59319989 175.3671875 217.6015625 C192.89106604 214.54183768 207.39963192 205.24647402 217.9375 191 C227.44809965 176.2828677 231.53321623 159.36894943 227.91943359 142.05273438 C224.83462231 128.91337607 218.59875222 118.48128497 209 109 C208.38640625 108.36449219 207.7728125 107.72898437 207.140625 107.07421875 C195.42302376 95.78225688 179.34696511 91.46539972 163.45141602 91.57788086 C145.49214714 92.19410057 129.31533767 100.41175904 117.484375 113.859375 Z " fill="#FF4906" transform="translate(229,4)"/>
<path d="M0 0 C6.31754897 -0.06891872 12.63379047 -0.12863911 18.95141602 -0.16479492 C21.09989851 -0.17986915 23.2483503 -0.20033189 25.39672852 -0.22631836 C28.48721908 -0.26276114 31.57730231 -0.27974019 34.66796875 -0.29296875 C36.10573921 -0.31619453 36.10573921 -0.31619453 37.57255554 -0.33988953 C46.32479776 -0.34209172 46.32479776 -0.34209172 50 3 C52.63171188 7.40980858 53.36328186 10.60151803 53.29296875 15.7109375 C53.28330078 16.95488281 53.27363281 18.19882813 53.26367188 19.48046875 C53.23853516 20.76566406 53.21339844 22.05085938 53.1875 23.375 C53.17396484 24.68339844 53.16042969 25.99179688 53.14648438 27.33984375 C53.1112237 30.56031844 53.06193633 33.77994606 53 37 C54.3146524 36.99111755 55.62930481 36.98223511 56.98379517 36.9730835 C69.37287246 36.89199834 81.76189592 36.83203472 94.15117836 36.79275131 C100.52065719 36.77187636 106.8899218 36.7435597 113.25927734 36.69824219 C119.40602092 36.65478221 125.55255845 36.6308622 131.69944382 36.62049103 C134.04461282 36.61310002 136.38977055 36.5986672 138.73485184 36.57707977 C142.01960881 36.54804471 145.30351426 36.54404417 148.58837891 36.54589844 C150.04278885 36.52432678 150.04278885 36.52432678 151.52658081 36.50231934 C157.1496099 36.53666824 160.69025914 37.01331472 165 41 C167.7895698 45.58456269 168.37230309 48.99597225 168.36076355 54.32723999 C168.36332682 55.04290465 168.3658901 55.75856931 168.36853105 56.49592078 C168.373453 58.88211621 168.35700292 61.26767194 168.34057617 63.65380859 C168.33972955 65.36895737 168.34020572 67.08410723 168.34190369 68.79925537 C168.34276371 73.44760772 168.32513679 78.09572739 168.30418181 82.74402571 C168.28541621 87.60469855 168.28366466 92.46537684 168.28010559 97.32608032 C168.27078479 106.5270002 168.2461705 115.72781303 168.21605712 124.92868578 C168.18251423 135.4050313 168.16602737 145.88138196 168.15097082 156.35776782 C168.11962101 177.90523989 168.06625482 199.45260943 168 221 C176.25 221 184.5 221 193 221 C193.06898455 227.01443063 193.12868474 233.02748072 193.16479492 239.04199219 C193.17985288 241.08663594 193.20030357 243.13124755 193.22631836 245.17578125 C193.26283311 248.11987252 193.27975651 251.06353557 193.29296875 254.0078125 C193.30845261 254.9174173 193.32393646 255.82702209 193.33988953 256.76419067 C193.34156216 263.11566226 192.51397463 267.37911723 187.95690918 272.12997437 C183.87645989 274.71055575 180.63144396 274.57387346 175.89526367 274.54589844 C174.98745148 274.55623611 174.07963928 274.56657379 173.14431763 274.57722473 C170.15202036 274.60665685 167.1603994 274.608152 164.16796875 274.609375 C162.09001881 274.62435635 160.01208079 274.6410834 157.93415833 274.65948486 C152.47123671 274.70317551 147.00847573 274.72316138 141.54541016 274.73822021 C135.96832779 274.75778501 130.39141905 274.79975578 124.81445312 274.83984375 C113.87635562 274.91516454 102.93829694 274.9654448 92 275 C93.22190551 278.13881899 94.45569464 281.27284336 95.69140625 284.40625 C96.0315979 285.28055664 96.37178955 286.15486328 96.72229004 287.05566406 C102.19893526 300.89274551 109.5730769 313.49038459 119 325 C119.43989258 325.53995605 119.87978516 326.07991211 120.33300781 326.63623047 C140.51794206 351.3122065 164.77715761 365.95286774 193 380 C186.49518962 403.87805058 186.49518962 403.87805058 182.8125 415.3125 C182.47484619 416.40280518 182.47484619 416.40280518 182.13037109 417.51513672 C180.78622839 421.57875595 179.67104103 424.66279057 176 427 C168.5521936 428.62124488 162.44055077 425.42076011 155.9375 422.125 C154.92526367 421.62395752 153.91302734 421.12291504 152.87011719 420.60668945 C144.21619682 416.25295183 135.9671157 411.50716113 128 406 C127.2476709 405.48066895 126.4953418 404.96133789 125.72021484 404.42626953 C114.94156286 396.90295935 105.00814999 388.82583882 95.63867188 379.60791016 C94.11295041 378.11083007 92.56841604 376.63686739 91.015625 375.16796875 C83.92022251 368.32311013 77.87300164 360.8898951 72 353 C71.36320313 352.14664062 70.72640625 351.29328125 70.0703125 350.4140625 C58.87725685 334.88821111 50.00515462 317.78231556 43 300 C40.57776029 304.73493089 38.22013898 309.49154842 36.015625 314.33203125 C31.08313049 325.10845948 25.61853005 335.16763969 19 345 C18.40300293 345.89428711 18.40300293 345.89428711 17.79394531 346.80664062 C4.74104483 366.19891046 -11.49085532 383.80203675 -30.28515625 397.72509766 C-31.94445551 398.95870539 -33.58189604 400.21730975 -35.21875 401.48046875 C-47.99230677 411.15374085 -62.41669661 418.68630022 -77 425.25 C-77.6276123 425.53770264 -78.25522461 425.82540527 -78.90185547 426.12182617 C-82.7382822 427.7735773 -85.84817125 428.69949289 -90 428 C-95.05223769 424.01191376 -96.42923432 419.85499803 -98.11328125 413.90234375 C-98.50219795 412.5954232 -98.50219795 412.5954232 -98.89897156 411.26210022 C-99.44158075 409.4278451 -99.97650558 407.5913012 -100.50415039 405.75268555 C-101.31217155 402.93864386 -102.14316101 400.13220733 -102.97851562 397.32617188 C-103.50395354 395.53945877 -104.02808735 393.75236153 -104.55078125 391.96484375 C-104.79758133 391.12622299 -105.04438141 390.28760223 -105.29866028 389.42356873 C-105.52277084 388.63917923 -105.74688141 387.85478973 -105.9777832 387.04663086 C-106.17588089 386.35999863 -106.37397858 385.67336639 -106.57807922 384.96592712 C-107 383 -107 383 -107 379 C-106.48840332 378.78496826 -105.97680664 378.56993652 -105.44970703 378.34838867 C-84.4174888 369.4205892 -64.11714157 358.355334 -48.453125 341.36328125 C-47 340 -47 340 -45 340 C-44.7628125 339.43925781 -44.525625 338.87851562 -44.28125 338.30078125 C-42.70913626 335.47768676 -40.75138484 333.50656888 -38.5 331.1875 C-29.38398093 321.39266367 -22.90610111 310.16790682 -16.6875 298.375 C-16.19588379 297.4459082 -15.70426758 296.51681641 -15.19775391 295.55957031 C-11.53927899 288.46155676 -8.90658982 281.55713353 -6 274 C-39.33 274 -72.66 274 -107 274 C-107 230 -107 230 -103 224 C-97.63034139 220.42022759 -92.13961067 220.8601136 -85.89526367 220.88647461 C-84.98745148 220.88632858 -84.07963928 220.88618256 -83.14431763 220.8860321 C-80.15217679 220.88672719 -77.16009868 220.89450069 -74.16796875 220.90234375 C-72.09003229 220.90420936 -70.01209538 220.90563259 -67.93415833 220.90663147 C-62.47122987 220.91044535 -57.00832809 220.92026601 -51.54541016 220.93133545 C-45.96842815 220.94157384 -40.39144182 220.94613429 -34.81445312 220.95117188 C-23.87629037 220.96188928 -12.93814741 220.97895216 -2 221 C-1.19794773 204.41382249 -0.80815533 187.8540337 -0.68359375 171.25 C-0.6629461 168.88533226 -0.6419481 166.52066756 -0.62062073 164.15600586 C-0.56620425 158.02100126 -0.51645076 151.88596799 -0.46777344 145.75091553 C-0.40797898 138.34231023 -0.34220716 130.93375573 -0.27747345 123.52519226 C-0.1804806 112.35015996 -0.09093304 101.17509063 0 90 C-29.37 90 -58.74 90 -89 90 C-89.061875 82.678125 -89.12375 75.35625 -89.1875 67.8125 C-89.22846802 64.35680542 -89.22846802 64.35680542 -89.27026367 60.83129883 C-89.27902836 58.99821497 -89.28667234 57.16512525 -89.29296875 55.33203125 C-89.30831665 54.38598022 -89.32366455 53.4399292 -89.33947754 52.46520996 C-89.34291674 43.80416555 -89.34291674 43.80416555 -86 40 C-81.7947501 36.8015211 -78.10295075 36.58494278 -72.99682617 36.65942383 C-71.81067215 36.65876671 -71.81067215 36.65876671 -70.60055542 36.65809631 C-67.99777168 36.66017931 -65.39563938 36.68348686 -62.79296875 36.70703125 C-60.98407849 36.71262895 -59.17518367 36.71689823 -57.36628723 36.71989441 C-52.61344773 36.73132947 -47.86088479 36.76078512 -43.1081543 36.79400635 C-37.40129562 36.83014231 -31.69434429 36.84387476 -25.98740387 36.86136627 C-17.32474377 36.89042327 -8.66269009 36.9479197 0 37 C0 24.79 0 12.58 0 0 Z M53 90 C52.67 133.23 52.34 176.46 52 221 C72.46 221 92.92 221 114 221 C114 177.77 114 134.54 114 90 C93.87 90 73.74 90 53 90 Z " fill="#555555" transform="translate(877,101)"/>
<path d="M0 0 C6.44102868 -0.12703233 12.88173302 -0.21444812 19.32373047 -0.2746582 C21.51395744 -0.29976434 23.70410094 -0.33385637 25.89404297 -0.37719727 C29.04675922 -0.43801907 32.19836553 -0.46624923 35.3515625 -0.48828125 C36.8144017 -0.52699089 36.8144017 -0.52699089 38.30679321 -0.56648254 C42.79846224 -0.56832535 45.98980807 -0.51569907 49.58047676 2.36594963 C54.86308122 8.11693643 54.27935475 14.47761598 54.22705078 21.87060547 C54.22734283 22.95412796 54.22763489 24.03765045 54.22793579 25.15400696 C54.22654566 28.72514941 54.21099909 32.29608162 54.1953125 35.8671875 C54.19158125 38.34725836 54.18873481 40.8273307 54.18673706 43.30740356 C54.17910944 49.82743415 54.1594683 56.3473753 54.1373291 62.86737061 C54.11576814 69.52354241 54.10773134 76.17974027 54.09765625 82.8359375 C54.07622168 95.89067057 54.04104651 108.94531385 54 122 C68.19 122 82.38 122 97 122 C97.09196442 128.29956251 97.17156372 134.59678476 97.21972656 140.89648438 C97.23980888 143.03816634 97.26708037 145.1797937 97.30175781 147.32128906 C97.35042398 150.40443415 97.3730029 153.48685262 97.390625 156.5703125 C97.41127014 157.52366486 97.43191528 158.47701721 97.45318604 159.45925903 C97.45508705 165.12523145 96.95591831 168.60405304 93 173 C81.3571672 178.8214164 67.01708279 175 54 175 C54 258.16 54 341.32 54 427 C10 427 10 427 3 423 C0.19080165 418.17214391 -0.37413617 414.16874131 -0.36914349 408.64183903 C-0.37260502 407.93139866 -0.37606655 407.2209583 -0.37963298 406.48898944 C-0.38755837 404.11419458 -0.37412842 401.74001294 -0.36076355 399.36524963 C-0.36207216 397.64328985 -0.36469961 395.92133064 -0.36853105 394.19937462 C-0.37523699 389.47205871 -0.3632418 384.74494683 -0.34819686 380.01765692 C-0.33524238 374.91820958 -0.33962555 369.81877375 -0.34190369 364.71931458 C-0.34347679 355.88564388 -0.33406368 347.05203967 -0.31719017 338.2183857 C-0.29280981 325.4464125 -0.28499588 312.67447144 -0.2812262 299.9024775 C-0.27466021 279.18081639 -0.25469502 258.4591907 -0.22631836 237.73754883 C-0.19878162 217.60831886 -0.17754615 197.47909852 -0.16479492 177.34985352 C-0.16361267 175.48872687 -0.16361267 175.48872687 -0.16240653 173.59000171 C-0.15849142 167.36552257 -0.15470029 161.14104336 -0.15097082 154.91656411 C-0.11987031 103.27768492 -0.06703047 51.63884419 0 0 Z " fill="#555555" transform="translate(691,101)"/>
<path d="M0 0 C6.01397009 -0.07432654 12.02767096 -0.12868588 18.04199219 -0.16479492 C20.08663594 -0.17985288 22.13124755 -0.20030357 24.17578125 -0.22631836 C27.11987252 -0.26283311 30.06353557 -0.27975651 33.0078125 -0.29296875 C33.9174173 -0.30845261 34.82702209 -0.32393646 35.76419067 -0.33988953 C40.92301071 -0.34124808 44.60522557 -0.00327295 49 3 C52.68802392 6.81731433 53.50023438 9.20115487 53.50120544 14.47361755 C53.51103958 15.78340073 53.52087372 17.0931839 53.53100586 18.44265747 C53.52163324 19.88812516 53.5118539 21.33359026 53.50170898 22.77905273 C53.50549424 24.3074544 53.51099599 25.83585263 53.51808167 27.36424255 C53.53205625 31.51886633 53.52083938 35.6730766 53.50437045 39.82767749 C53.490469 44.20454363 53.49698819 48.58138692 53.50050354 52.95826721 C53.50320879 60.33511949 53.48972753 67.71180946 53.46655273 75.08862305 C53.44018746 83.53776718 53.43811533 91.98663576 53.4499411 100.43580669 C53.46086305 108.62365728 53.45440503 116.81141116 53.44038582 124.99925423 C53.43472409 128.44938592 53.43462976 131.89944449 53.43945122 135.34957695 C53.46774043 162.57320253 52.30381816 189.42616701 46.8125 216.1875 C46.66615112 216.92374603 46.51980225 217.65999207 46.36901855 218.41854858 C43.0254569 235.19208289 39.13095199 252.39554023 32 268 C23.82308422 265.8582487 15.72759721 263.47719927 7.68237305 260.88574219 C6.34637212 260.45997467 5.00741766 260.04337192 3.66577148 259.63574219 C-10.50088392 255.32332906 -10.50088392 255.32332906 -14.16992188 250.06518555 C-17.20061503 242.52499926 -14.61141609 234.32890778 -12.3125 226.9375 C-2.59979463 193.34279636 -0.54459207 159.48330717 -0.49388909 124.75092101 C-0.48432144 120.34409354 -0.45810826 115.93736074 -0.43388367 111.53059387 C-0.39070899 103.23715953 -0.36186452 94.94374403 -0.33856028 86.65023261 C-0.31124083 77.18656435 -0.26734947 67.72299368 -0.22227156 58.25939596 C-0.13013018 38.83964933 -0.05813204 19.4198768 0 0 Z " fill="#555555" transform="translate(617,157)"/>
</svg>
